PathFileType	4	(X/Y/Z)	 s06c0203.trc
DataRate	CameraRate	NumFrames	NumMarkers	Units	OrigDataRate	OrigDataStartFrame	OrigNumFrames
200	200	7	48	mm	200	501	2000
Frame#	Time	racr			lacr			c7			jug			rlel			rdr			llel			ldr			s2			lic			ric			lasi			rasi			rpsi			lpsi			rgt			lgt			rth1			rth2			rth3			rth4			rlfc			rmfc			rsh1			rsh2			rsh3			rsh4			rlmal			rcal			rtoe			rmt5			lth1			lth2			lth4			lth3			llfc			lmfc			llmal			lcal			lmt5			lsh1			lsh2			lsh3			lsh4			ltoe			SBIKE			LBIKE			RBIKE			
		X1	Y1	Z1	X2	Y2	Z2	X3	Y3	Z3	X4	Y4	Z4	X5	Y5	Z5	X6	Y6	Z6	X7	Y7	Z7	X8	Y8	Z8	X9	Y9	Z9	X10	Y10	Z10	X11	Y11	Z11	X12	Y12	Z12	X13	Y13	Z13	X14	Y14	Z14	X15	Y15	Z15	X16	Y16	Z16	X17	Y17	Z17	X18	Y18	Z18	X19	Y19	Z19	X20	Y20	Z20	X21	Y21	Z21	X22	Y22	Z22	X23	Y23	Z23	X24	Y24	Z24	X25	Y25	Z25	X26	Y26	Z26	X27	Y27	Z27	X28	Y28	Z28	X29	Y29	Z29	X30	Y30	Z30	X31	Y31	Z31	X32	Y32	Z32	X33	Y33	Z33	X34	Y34	Z34	X35	Y35	Z35	X36	Y36	Z36	X37	Y37	Z37	X38	Y38	Z38	X39	Y39	Z39	X40	Y40	Z40	X41	Y41	Z41	X42	Y42	Z42	X43	Y43	Z43	X44	Y44	Z44	X45	Y45	Z45	X46	Y46	Z46	X47	Y47	Z47	X48	Y48	Z48	
501	2.5050	540.394596	1293.941095	-88.452177	520.851906	1257.514282	-408.211159	505.508169	1378.230522	-254.388651	527.981717	1216.733935	-238.757153	483.655603	1041.370663	35.131932	671.570521	930.070803	-46.067370	453.394998	1002.882812	-490.786617	652.668709	930.856479	-402.394218	-15.206932	1147.280324	-199.963171	149.498523	1102.279033	-377.459072	149.335202	1101.840395	-37.164197	169.468500	1047.871107	-337.805603	167.582709	1054.960220	-77.603073	21.562383	1180.802493	-165.992962	19.842222	1181.287167	-227.422741	104.185703	1026.008784	0.445861	116.090258	1053.086938	-394.834079	200.430490	934.086168	-4.653825	274.577331	882.635626	-19.975992	310.693045	803.909613	-32.022086	296.342789	907.193200	-38.783949	336.645743	707.523984	-60.501448	311.088532	690.871765	-171.305437	258.356503	616.781421	-29.674716	205.934350	549.700743	-47.622786	128.044973	508.637811	-43.423897	218.392175	536.885837	-84.345085	55.781446	460.736608	-41.476005	-6.290668	489.949595	-88.989029	144.608222	257.272512	-93.365581	70.814484	321.799874	-23.554737	170.951384	946.911389	-405.399760	244.664936	901.123762	-398.761417	270.532116	925.542819	-387.197632	286.229524	822.037665	-392.679423	339.369749	715.115049	-370.329724	340.142806	696.559044	-253.835710	240.836252	349.909795	-369.451938	178.851457	296.459687	-321.101851	370.538027	330.106161	-402.756026	319.083762	606.216082	-393.555228	316.456758	521.170575	-374.967473	273.311375	443.602587	-376.548065	339.699494	518.032127	-342.272616	450.669554	366.550609	-346.385947	-204.296189	866.657811	-203.047510	-52.325821	83.775015	-410.565345	-51.026652	79.838075	-13.651821	
502	2.5100	541.142355	1294.979762	-88.455287	521.666386	1258.093220	-408.228897	506.262754	1379.172351	-254.231306	528.938712	1217.657650	-238.720264	484.154724	1042.654381	35.517241	671.721558	930.233886	-45.760524	453.624435	1003.398758	-490.676912	652.777953	930.679523	-402.083375	-13.872431	1147.469932	-199.995468	150.645866	1101.890588	-377.136216	150.671201	1102.508218	-37.285202	170.619201	1046.980574	-337.860058	168.762694	1055.522190	-77.661122	22.774540	1180.954463	-165.990561	20.975673	1181.275110	-227.488532	105.629588	1026.901949	0.842970	117.315921	1052.233641	-394.631225	202.009178	935.826964	-4.400969	276.135532	885.117987	-19.645690	313.347680	806.523368	-31.494712	298.184913	909.704134	-38.553558	339.862785	710.231043	-60.043256	314.069992	693.303176	-170.728919	260.785968	619.866818	-29.340285	207.864840	553.269930	-47.358983	129.606240	512.935621	-43.307103	220.225229	540.379888	-84.047401	56.945243	465.700735	-41.436502	-4.913523	495.270371	-88.961975	144.709046	261.806216	-93.304254	71.179221	326.737365	-23.592369	171.368501	945.350357	-405.832622	244.571658	898.525560	-399.015415	270.732228	922.620021	-387.539213	285.055008	818.914015	-392.764739	337.401837	711.516940	-370.935103	337.948105	692.932785	-254.562855	240.943228	345.666609	-369.730647	178.692240	292.589583	-321.498757	370.753355	324.740330	-402.497023	317.622030	602.497381	-394.144632	315.454499	517.370860	-375.423650	272.818809	439.621624	-376.931819	338.759675	514.514803	-342.901965	450.962803	360.974864	-346.207013	-204.307296	866.655598	-203.037256	-52.322176	83.787549	-410.574254	-51.029410	79.852157	-13.645563	
503	2.5150	541.705910	1296.202142	-88.301705	522.509823	1258.764804	-408.326127	507.019586	1380.197029	-254.181334	529.823368	1218.769490	-238.655191	484.567987	1043.989100	36.002745	671.876827	930.515805	-45.398642	453.979714	1003.772013	-490.351368	652.957396	930.496034	-401.797226	-12.622773	1147.587054	-199.843873	151.735280	1101.517110	-376.902406	151.985844	1103.092756	-37.206404	171.693669	1046.428688	-337.387190	169.916392	1056.098701	-79.326399	23.973438	1181.090104	-165.954339	22.124387	1181.263265	-227.481751	107.186614	1027.880941	1.273880	118.359086	1051.209680	-394.116236	203.862608	937.496023	-4.796508	278.296446	887.477850	-19.295576	315.565565	809.403662	-31.072809	300.091000	912.169641	-38.379556	343.114781	712.967467	-59.597639	316.569423	695.030727	-169.970099	263.383208	623.139819	-29.004127	209.940241	557.058909	-47.079721	131.279765	517.260662	-43.179786	222.235080	544.030424	-83.842445	58.216574	470.645159	-41.400385	-3.458804	500.614158	-88.955376	143.348543	265.199986	-94.932745	71.727102	331.635623	-23.607124	171.831080	943.704176	-405.927554	244.418881	895.994250	-399.284824	270.949918	919.680228	-387.912389	283.908597	815.795899	-392.928435	335.432417	707.894779	-371.549641	335.898372	689.305908	-255.326560	241.012265	341.533522	-370.005263	178.439782	288.804362	-321.843627	370.786705	319.786467	-402.498039	316.114480	598.721931	-394.658656	314.395019	513.778432	-375.946615	272.180989	435.702806	-377.372839	337.684676	511.467791	-344.085537	451.208727	355.447021	-346.075478	-204.272720	866.676439	-202.994014	-52.320459	83.795136	-410.542901	-51.043892	79.865381	-13.639873	
504	2.5200	542.386609	1296.884812	-88.869140	523.229688	1259.439949	-408.384054	507.673453	1381.258336	-253.991465	530.704776	1219.935318	-238.658010	484.877548	1045.251826	36.507932	672.026101	930.816013	-45.111848	454.427034	1004.169053	-490.046581	653.182893	930.258772	-401.505491	-11.271451	1147.609178	-199.729413	152.772372	1101.206041	-376.522451	153.321424	1103.752794	-37.379501	172.703473	1045.998048	-337.305054	171.122513	1056.936660	-78.059926	25.138555	1181.219411	-165.932438	23.195030	1181.296674	-227.435863	108.897268	1028.900315	1.745084	119.502236	1050.455794	-393.808587	205.647572	939.371823	-4.562283	280.564248	890.027781	-19.044516	318.505056	812.060690	-30.608710	302.082938	914.749570	-38.204640	346.440702	715.852039	-59.104755	321.086189	698.674966	-170.045244	265.858168	626.529310	-28.664858	212.079699	560.625468	-46.799014	133.115682	521.582330	-43.089001	224.246870	547.599763	-83.570483	59.702805	475.632852	-41.251415	-1.826276	505.964175	-88.869750	143.681776	269.772271	-94.958177	72.515862	336.695839	-23.618813	172.302509	942.109430	-406.025248	244.267743	893.483588	-399.590145	271.107153	916.786220	-388.281959	282.674709	812.769390	-393.232841	333.408313	704.392417	-372.226294	334.279873	685.645885	-256.187529	240.901884	337.465513	-370.280628	178.068386	285.338668	-322.038535	370.782127	314.642920	-402.487102	314.520857	595.198536	-395.269842	313.266774	510.076923	-376.439929	271.480681	431.941745	-377.952177	336.620508	507.974212	-344.608619	451.395246	349.646171	-345.925786	-204.254678	866.663236	-202.971325	-52.305945	83.799898	-410.531739	-51.045490	79.855191	-13.645116	
505	2.5250	542.776807	1298.167493	-88.644861	523.904947	1260.326405	-408.414763	508.277180	1382.550800	-253.881241	531.497137	1221.271898	-238.707159	485.204683	1046.540670	36.979536	672.128657	931.071530	-44.931155	454.970351	1004.690000	-489.724082	653.588333	929.908396	-401.263318	-9.217548	1147.730733	-199.159287	153.707068	1101.030544	-376.350306	154.560987	1104.655447	-37.395480	173.767365	1045.537681	-336.708312	172.374364	1057.672935	-78.556384	26.240149	1181.384475	-165.900173	24.190541	1181.305345	-227.384769	110.620419	1030.033309	2.243778	120.724325	1049.658094	-393.508907	207.512629	941.257534	-4.420142	282.794506	892.567902	-18.900701	321.409725	814.804856	-30.164523	304.133079	917.388270	-38.076011	349.931436	718.747339	-58.657929	325.001557	701.911169	-169.147092	268.547839	629.806713	-28.423635	214.364821	564.422741	-46.543477	135.030875	526.002070	-42.951812	226.402899	551.188930	-83.346457	61.324966	480.668433	-41.155207	-0.114331	511.342876	-88.845469	144.171200	274.342629	-95.079377	73.324110	341.608744	-23.623146	172.734186	940.536696	-406.132773	244.075299	890.998181	-399.935929	271.252295	913.979293	-388.659592	281.472244	809.758423	-393.545270	331.346146	700.874714	-372.905710	331.332258	681.680623	-257.901732	240.641389	333.550559	-370.556170	177.568650	281.958424	-322.363957	370.634577	309.615899	-402.447337	312.909158	591.575159	-396.014762	312.038211	506.647407	-377.028690	270.584357	428.230500	-378.428725	335.461617	504.579340	-345.198482	451.465102	343.954949	-345.791124	-204.258893	866.688610	-202.953146	-52.307958	83.801097	-410.547662	-51.018236	79.837292	-13.658342	
506	2.5300	543.089888	1299.589465	-88.315737	524.462813	1261.270391	-408.650063	508.804162	1383.884896	-253.736131	532.252873	1222.667105	-238.740857	485.493570	1047.840544	37.464668	672.198743	931.213529	-44.815655	455.473752	1005.301892	-489.401607	653.819457	929.865336	-400.986455	-7.193509	1147.491846	-199.264819	154.522464	1100.813045	-376.143817	155.833668	1105.489792	-37.430387	174.732299	1045.346234	-336.215268	173.562066	1058.837461	-78.445414	27.306627	1181.585057	-165.806351	25.198798	1181.336867	-227.345532	112.399372	1031.154562	2.694413	121.770068	1048.916224	-393.066819	210.057752	943.234825	-4.247179	285.111804	895.191621	-18.753181	324.436613	817.701980	-29.643110	306.246559	920.105981	-37.990709	353.457192	721.754829	-58.178783	328.467340	704.853781	-168.682181	271.384323	633.178264	-28.005571	216.705970	568.153320	-46.274555	137.082181	530.374059	-42.807391	228.636696	555.012973	-83.146828	63.043563	485.694559	-41.101644	1.811737	516.645711	-88.919946	144.922380	279.017001	-95.026439	74.387455	346.645535	-23.614160	173.070429	938.990102	-406.282786	243.824033	888.572937	-400.303348	271.316312	911.246740	-389.057785	280.179839	806.883567	-393.969452	329.252689	697.432389	-373.625645	330.555592	678.599857	-258.538411	240.386381	329.701080	-370.814767	176.878621	278.597595	-322.772855	370.289533	304.563659	-402.445163	311.151456	588.200441	-396.687703	310.720203	503.097054	-377.596631	269.688950	424.540411	-378.944628	334.221129	501.259704	-345.820912	451.431080	338.391320	-345.736872	-204.235174	866.710436	-202.940809	-52.298829	83.826069	-410.526778	-51.030851	79.864803	-13.636310	
507	2.5350	543.242062	1301.067001	-88.021536	524.999954	1262.365685	-408.747468	509.286440	1385.254308	-253.571178	532.945577	1224.169476	-238.734728	485.746840	1049.023483	37.879911	672.278929	931.319873	-44.754226	455.999199	1005.967613	-489.033476	654.080775	929.960369	-400.814737	-5.966423	1147.503555	-199.122266	155.340823	1100.702423	-375.980444	157.021549	1106.275840	-37.532671	175.430589	1045.258128	-335.759098	174.663111	1059.968896	-78.422374	28.319047	1181.800058	-165.746940	26.133631	1181.318321	-227.264843	114.222667	1032.298584	3.043090	122.758659	1048.184782	-392.703643	212.022650	945.286434	-4.176701	287.528732	897.744094	-18.524413	327.381099	820.631389	-29.238333	308.371250	922.838511	-37.967024	356.987906	724.811407	-57.670014	332.156089	707.843258	-168.284939	274.557032	636.712953	-27.835778	219.215183	572.119320	-46.009402	139.200378	534.807732	-42.693673	231.076683	558.734444	-82.817597	64.904788	490.724369	-40.987621	3.780995	522.035255	-88.860585	145.712840	283.670943	-95.005629	75.572644	351.675293	-23.595790	173.281108	937.587596	-406.900823	243.456803	886.344897	-400.627340	271.286819	908.667520	-389.558023	278.904713	804.089623	-394.428505	327.082611	694.105443	-374.417813	327.715889	675.510268	-259.030048	239.998955	325.952378	-371.043672	176.165930	275.560658	-322.971021	369.934433	299.398095	-402.398523	309.378950	584.824740	-397.417862	309.308304	499.822888	-378.287935	268.603715	421.116646	-379.478188	332.900344	498.022561	-346.505544	451.412342	332.891019	-346.099293	-204.240508	866.711651	-202.917366	-52.301240	83.835971	-410.522333	-51.027768	79.869835	-13.641569	
